HIERARCHY
ROOT hip
{
	OFFSET 0.000000 -102.168968 0.000000
	CHANNELS 6 Xposition Yposition Zposition Zrotation Xrotation Yrotation
	JOINT abdomen
	{
		OFFSET 0.000000 6.096001 0.000000
		CHANNELS 3 Zrotation Xrotation Yrotation
		JOINT chest
		{
			OFFSET 0.000000 15.118080 -1.219200
			CHANNELS 3 Zrotation Xrotation Yrotation
			JOINT neck
			{
				OFFSET 0.000000 18.287994 -0.487680
				CHANNELS 3 Zrotation Xrotation Yrotation
				JOINT head
				{
					OFFSET 0.000000 5.608322 0.000000
					CHANNELS 3 Zrotation Xrotation Yrotation
					End Site
					{
						OFFSET 11.948160 -6.339828 -0.975360
					}
				}
			}
			JOINT lCollar
			{
				OFFSET 6.096000 11.948166 -1.463040
				CHANNELS 3 Zrotation Xrotation Yrotation
				JOINT lShldr
				{
					OFFSET 5.852160 0.000000 0.000000
					CHANNELS 3 Zrotation Xrotation Yrotation
					JOINT lForeArm
					{
						OFFSET 18.044161 0.000000 0.000000
						CHANNELS 3 Zrotation Xrotation Yrotation
						JOINT lHand
						{
							OFFSET 15.118080 0.000000 0.000000
							CHANNELS 3 Zrotation Xrotation Yrotation
							End Site
							{
								OFFSET -11.948160 -6.339828 -0.975360
							}
						}
					}
				}
			}
			JOINT rCollar
			{
				OFFSET -6.339839 11.948166 -1.463040
				CHANNELS 3 Zrotation Xrotation Yrotation
				JOINT rShldr
				{
					OFFSET -5.608321 0.000000 0.000000
					CHANNELS 3 Zrotation Xrotation Yrotation
					JOINT rForeArm
					{
						OFFSET -18.287998 0.000000 0.000000
						CHANNELS 3 Zrotation Xrotation Yrotation
						JOINT rHand
						{
							OFFSET -14.874243 0.000000 0.000000
							CHANNELS 3 Zrotation Xrotation Yrotation
							End Site
							{
								OFFSET 5.852160 -33.649918 2.438400
							}
						}
					}
				}
			}
		}
	}
	JOINT lThigh
	{
		OFFSET 9.509760 -2.926079 2.438400
		CHANNELS 3 Zrotation Xrotation Yrotation
		JOINT lShin
		{
			OFFSET -3.657600 -35.844475 0.000000
			CHANNELS 3 Zrotation Xrotation Yrotation
			JOINT lFoot
			{
				OFFSET 0.000000 -34.381443 -2.194560
				CHANNELS 3 Zrotation Xrotation Yrotation
				End Site
				{
					OFFSET -5.852160 -33.649918 2.438400
				}
			}
		}
	}
	JOINT rThigh
	{
		OFFSET -9.509760 -2.926079 2.438400
		CHANNELS 3 Zrotation Xrotation Yrotation
		JOINT rShin
		{
			OFFSET 3.657600 -35.844475 0.000000
			CHANNELS 3 Zrotation Xrotation Yrotation
			JOINT rFoot
			{
				OFFSET 0.000000 -34.381443 -2.194560
				CHANNELS 3 Zrotation Xrotation Yrotation
				End Site
				{
					OFFSET 0.000000 -4.389120 8.290560
				}
			}
		}
	}
}
MOTION
Frames:	15
Frame Time:	0.05
-0.531464 84.579605 1.082135 0.000000 0.000000 0.000000 3.930337 7.717866 -0.880332 1.948723 6.233219 -3.383257 0.000000 0.000000 0.000000 0.000000 0.000000 0.000000 -17.050819 13.767784 -28.619812 5.032503 2.353975 -15.068669 -20.233448 0.582948 -82.345169 -6.999999 0.000000 0.000000 26.387768 14.820211 26.609882 20.605604 6.932578 25.941944 5.235034 2.851590 61.480331 6.999999 -40.018116 -0.000000 6.454540 -17.288004 2.541637 -2.363413 38.984581 1.385698 5.255294 -20.225721 -0.332931 -6.560701 -17.131973 -2.845723 3.407308 39.150192 -2.022306 -5.476057 -20.387428 1.283927 
-0.527351 84.746208 1.082135 0.000000 0.000000 0.451324 3.926501 7.666242 -0.876568 1.948723 6.233219 -2.080589 0.000000 0.000000 0.000000 0.000000 0.000000 0.000000 -16.786900 13.135049 -27.753969 5.401493 1.256218 -12.799404 -20.053482 2.931608 -88.281860 -6.176562 -0.564710 0.655806 26.189833 14.317603 26.479382 20.290615 6.682075 25.266853 5.127456 2.400483 60.555515 4.614016 -42.062767 -2.776048 6.444873 -17.222786 2.528956 -2.371670 38.734608 1.383820 5.274378 -20.092529 -0.686629 -6.534531 -16.934002 -2.805499 3.423102 38.839111 -2.019446 -5.500003 -20.236105 0.898826 
-0.516887 85.162720 1.082135 0.000000 0.000000 1.599569 3.916759 7.534896 -0.867023 1.948723 6.233218 1.233625 0.000000 0.000000 0.000000 0.000000 0.000000 0.000000 -16.118439 11.689884 -25.574883 6.543908 -1.314005 -7.166177 -18.559181 8.376384 -102.638565 -3.905988 -2.076425 2.414834 25.649876 12.974965 26.129080 19.406700 5.988804 23.491816 4.788400 1.276198 58.285278 -2.210408 -46.598206 -10.178690 6.418334 -17.041306 2.493796 -2.393688 38.050716 1.377864 5.324768 -19.729696 -1.634630 -6.464340 -16.396713 -2.697298 3.465128 37.991474 -2.009988 -5.563234 -19.821480 -0.132973 
-0.502884 85.704193 1.082135 0.000000 0.000000 3.136151 3.903764 7.359125 -0.854320 1.948723 6.233218 5.668701 0.000000 0.000000 0.000000 0.000000 0.000000 0.000000 -15.258108 10.103024 -22.709627 8.348761 -4.146163 0.121424 -14.816422 14.125024 -120.465111 -0.454032 -4.253485 4.971378 24.843054 11.043590 25.619984 18.029209 4.934981 20.994598 4.199738 -0.171568 55.422100 -12.684806 -51.107307 -20.727421 6.378679 -16.764790 2.440581 -2.425356 37.031967 1.367087 5.395596 -19.193104 -3.007741 -6.362981 -15.604976 -2.540377 3.525373 36.735725 -1.992024 -5.652078 -19.201670 -1.625594 
-0.488154 86.245659 1.082135 0.000000 0.000000 4.752479 3.890144 7.174225 -0.841045 1.948723 6.233219 10.333954 0.000000 0.000000 0.000000 0.000000 0.000000 0.000000 -14.537486 8.955506 -19.804054 9.930375 -5.874721 7.379648 -10.072822 17.853607 -136.351868 3.891586 -6.800604 8.031084 23.847620 8.773561 25.012177 16.246256 3.619274 18.148899 3.430190 -1.618037 52.719543 -23.468632 -53.801464 -31.083693 6.329680 -16.414476 2.373758 -2.462671 35.777401 1.350859 5.476265 -18.538111 -4.636509 -6.243127 -14.643709 -2.353774 3.596109 35.200321 -1.963980 -5.753155 -18.435371 -3.393460 
-0.475510 86.662170 1.082135 0.000000 0.000000 6.139966 3.878495 7.015500 -0.829720 1.948723 6.233219 14.338698 0.000000 0.000000 0.000000 0.000000 0.000000 0.000000 -14.407984 8.701375 -17.534943 9.561892 -5.268210 12.830327 -7.412493 19.106873 -143.875381 8.761720 -9.417871 11.302465 22.754534 6.407805 24.365917 14.190935 2.169863 15.318948 2.666234 -2.797669 50.943390 -28.468796 -54.563374 -35.775688 6.275073 -16.011610 2.297703 -2.501790 34.386082 1.329074 5.557460 -17.818296 -6.350503 -6.116695 -13.597920 -2.155468 3.669994 33.513664 -1.925572 -5.854659 -17.583406 -5.252308 
-0.462959 86.909203 1.082135 0.000000 0.000000 7.517206 3.866968 6.857942 -0.818542 1.948723 6.233219 18.313860 0.000000 0.000000 0.000000 0.000000 0.000000 0.000000 -15.436170 9.769164 -15.732060 3.389297 -0.374562 16.906931 -9.389305 18.191381 -137.365799 13.674857 -11.822209 14.478317 21.672810 4.178051 23.743628 12.058283 0.740841 12.859685 1.997697 -3.817668 51.415253 -27.181473 -54.393055 -34.573425 6.218491 -15.577447 2.216644 -2.538977 32.957035 1.302355 5.631783 -17.084848 -7.977982 -5.994581 -12.552783 -1.961968 3.739947 31.804121 -1.878253 -5.947178 -16.709448 -7.019685 
-0.449369 87.069267 1.082135 0.000000 0.000000 9.008389 3.854530 6.687345 -0.806512 1.948723 6.233219 22.617901 0.000000 0.000000 0.000000 0.000000 0.000000 0.000000 -17.441189 11.741986 -14.104472 -7.907113 7.576653 20.669268 -14.008268 14.840359 -121.134087 18.035328 -13.769912 17.218758 20.730455 2.303406 23.211573 10.103756 -0.500240 11.121296 1.412403 -4.888666 53.351749 -23.751684 -53.852001 -31.350937 6.163459 -15.133265 2.134626 -2.570518 31.589270 1.272094 5.693915 -16.386646 -9.345947 -5.886683 -11.593624 -1.788266 3.798891 30.199955 -1.825241 -6.023931 -15.879900 -8.514941 
-0.438844 87.208015 1.082135 0.000000 0.000000 10.163332 3.844926 6.555211 -0.797246 1.948723 6.233219 25.951445 0.000000 0.000000 0.000000 0.000000 0.000000 0.000000 -19.657778 13.851010 -13.148323 -18.333918 15.235511 23.027714 -17.805798 9.695665 -103.298447 21.162878 -15.064411 19.148914 20.070316 0.992575 22.839977 8.621630 -1.384637 10.454333 0.874944 -5.862037 54.368145 -18.906240 -52.853603 -26.746452 6.113378 -14.700365 2.055499 -2.592608 30.381767 1.240334 5.740148 -15.770861 -10.280487 -5.802112 -10.805883 -1.648114 3.839514 28.829357 -1.771196 -6.080261 -15.163199 -9.558797 
-0.435486 87.391075 1.082135 0.000000 0.000000 10.531850 3.841867 6.513048 -0.794298 1.948723 6.233219 27.015106 0.000000 0.000000 0.000000 0.000000 0.000000 0.000000 -21.180561 15.462255 -13.347982 -20.554781 19.806419 22.029888 -19.424366 5.475402 -90.905479 22.354044 -15.535657 19.877443 19.840296 0.450666 22.700661 7.903308 -1.749225 11.211760 0.185702 -6.489655 52.069653 -13.411139 -51.341427 -21.437407 6.071536 -14.300063 1.982933 -2.601279 29.433491 1.209518 5.767226 -15.284025 -10.607324 -5.749543 -10.275076 -1.554550 3.854104 27.820473 -1.721575 -6.112265 -14.628602 -9.972555 
-0.448497 87.712502 1.082135 0.000000 0.000000 9.104072 3.825018 6.574918 -0.804517 1.926466 6.192122 23.674343 0.000000 0.000000 0.000000 0.000000 0.000000 0.000000 -21.410410 16.519358 -15.980384 -3.310804 18.520250 12.577965 -19.775105 4.319825 -87.352852 19.797571 -14.509593 18.309549 20.369286 1.175727 22.942074 8.333637 -1.296719 14.678763 -0.957281 -6.665370 44.726246 -7.958144 -49.357735 -16.048685 6.032977 -13.841015 1.900164 -2.584348 28.722261 1.173071 5.764900 -14.906579 -9.777792 -5.744051 -10.108729 -1.523949 3.818094 27.241325 -1.669724 -6.107243 -14.306912 -9.216859 
-0.471819 88.073814 1.082135 0.000000 0.000000 6.544983 3.817581 6.766226 -0.823705 1.904213 6.151023 17.068205 0.000000 0.000000 0.000000 0.000000 0.000000 0.000000 -20.784731 17.227610 -20.368145 22.708961 12.273277 -1.783021 -19.804619 4.806095 -88.327454 13.674852 -11.822208 14.478317 21.635784 3.189812 23.549929 9.666332 -0.086141 21.041924 -2.442454 -6.370490 33.840099 -3.061403 -47.058285 -11.063824 5.993449 -13.274413 1.798559 -2.541385 28.155405 1.128124 5.728511 -14.592340 -7.759001 -5.782171 -10.269197 -1.549065 3.729736 27.004108 -1.610927 -6.061191 -14.148825 -7.266310 
-0.486658 88.251801 1.082135 0.000000 0.000000 4.916679 3.888764 7.155441 -0.839701 1.948723 6.233219 10.807889 0.000000 0.000000 0.000000 0.000000 0.000000 0.000000 -19.953848 17.345480 -24.069134 36.591934 6.595190 -12.172869 -19.860680 4.886950 -88.810944 6.288382 -8.118853 9.658906 23.253548 5.988358 24.351999 11.226975 1.443902 29.019566 -3.819730 -5.602361 21.870535 0.976079 -44.685528 -6.799391 5.956936 -12.685411 1.693584 -2.485577 27.726175 1.081994 5.663177 -14.349369 -5.150596 -5.845173 -10.624154 -1.608171 3.614954 27.003229 -1.552127 -5.982730 -14.101724 -4.712565 
-0.489599 88.221191 1.082135 0.000000 0.000000 4.593929 4.132174 7.980127 -0.853931 2.138415 6.583042 5.142404 0.000000 0.000000 0.000000 0.000000 0.000000 0.000000 -18.819233 16.364599 -26.593231 30.532284 3.787648 -16.203747 -20.229977 3.723006 -87.357918 -0.454035 -4.253483 4.971376 24.871767 9.037050 25.192636 12.561627 2.847547 37.333664 -4.732441 -4.642024 11.251008 4.022297 -42.526566 -3.445523 5.926990 -12.159195 1.600323 -2.429834 27.427849 1.041288 5.582485 -14.182202 -2.550620 -5.914290 -11.041305 -1.679319 3.499828 27.133184 -1.500024 -5.888606 -14.116513 -2.149105 
-0.490164 88.122597 1.082135 0.000000 0.000000 4.531891 4.457104 9.001658 -0.876688 2.395502 7.055874 -0.181507 0.000000 0.000000 0.000000 0.000000 0.000000 0.000000 -17.589157 14.721268 -28.436501 15.610965 2.174544 -16.946089 -20.548855 2.131376 -85.434456 -5.205178 -1.219480 1.416792 26.196316 11.757922 25.937233 13.515715 3.833047 44.681335 -5.048649 -3.922351 4.375772 6.039423 -40.877060 -1.133738 5.906793 -11.780977 1.533573 -2.386960 27.253748 1.012272 5.511053 -14.088258 -0.554851 -5.970262 -11.388459 -1.739551 3.410920 27.288504 -1.462280 -5.806619 -14.151397 -0.172267 
